<svg xmlns="http://www.w3.org/2000/svg" viewBox="0 0 512 512">
  <defs>
    <linearGradient id="bg" x1="0" y1="0" x2="1" y2="1">
      <stop offset="0%" stop-color="#0f1923"/>
      <stop offset="100%" stop-color="#1a2a3a"/>
    </linearGradient>
    <linearGradient id="cross" x1="0" y1="0" x2="1" y2="1">
      <stop offset="0%" stop-color="#3b82f6"/>
      <stop offset="100%" stop-color="#06b6d4"/>
    </linearGradient>
  </defs>
  <rect width="512" height="512" rx="96" fill="url(#bg)"/>
  <!-- 医学十字 -->
  <g transform="translate(256,256)">
    <rect x="-28" y="-100" width="56" height="200" rx="14" fill="url(#cross)"/>
    <rect x="-100" y="-28" width="200" height="56" rx="14" fill="url(#cross)"/>
  </g>
  <!-- DNA螺旋装饰 -->
  <g opacity="0.15" stroke="#06b6d4" stroke-width="2" fill="none">
    <path d="M80,400 Q120,300 100,200 Q80,100 120,60"/>
    <path d="M100,400 Q140,300 120,200 Q100,100 140,60"/>
    <path d="M432,400 Q392,300 412,200 Q432,100 392,60"/>
    <path d="M412,400 Q372,300 392,200 Q412,100 372,60"/>
  </g>
</svg>